<svg viewBox="0 0 180 60" xmlns="http://www.w3.org/2000/svg">
  <!-- Company Logo: Innovate -->
  <rect width="180" height="60" fill="none" />
  
  <!-- Lightbulb Symbol -->
  <g transform="translate(40, 30)">
    <path d="M0,-15 Q10,-15 10,-5 Q10,5 0,10 Q-10,5 -10,-5 Q-10,-15 0,-15 Z" fill="#FFD700" />
    <path d="M-3,10 L3,10 L3,15 L-3,15 Z" fill="#FFD700" />
    
    <!-- Light Rays -->
    <line x1="0" y1="-18" x2="0" y2="-22" stroke="#FFD700" stroke-width="2" />
    <line x1="12" y1="-9" x2="14" y2="-12" stroke="#FFD700" stroke-width="2" />
    <line x1="15" y1="0" x2="20" y2="0" stroke="#FFD700" stroke-width="2" />
    <line x1="12" y1="9" x2="14" y2="12" stroke="#FFD700" stroke-width="2" />
    <line x1="-12" y1="-9" x2="-14" y2="-12" stroke="#FFD700" stroke-width="2" />
    <line x1="-15" y1="0" x2="-20" y2="0" stroke="#FFD700" stroke-width="2" />
    <line x1="-12" y1="9" x2="-14" y2="12" stroke="#FFD700" stroke-width="2" />
  </g>
  
  <!-- Company Text -->
  <text x="75" y="35" font-family="Arial, sans-serif" font-size="16" font-weight="bold" fill="#4A5568">INNOVATE</text>
</svg>
